<?xml version="1.0" encoding="utf-8"?>
<!-- Generator: Adobe Illustrator 19.0.0, SVG Export Plug-In . SVG Version: 6.00 Build 0)  -->
<svg version="1.1" id="Layer_1" xmlns="http://www.w3.org/2000/svg" xmlns:xlink="http://www.w3.org/1999/xlink" x="0px" y="0px"
	 viewBox="197 387.1 20 19.7" style="enable-background:new 197 387.1 20 19.7;" xml:space="preserve">
<style type="text/css">
	.st0{fill:#6A6E7C;}
</style>
<g>
	<g>
		<path class="st0" d="M202.3,405.5c-0.8,0-1.4-0.2-1.8-0.6c-0.1-0.1-0.2-0.2-0.3-0.3c-0.7-0.7-1.6-1.5-1.5-2.6
			c0-0.7,0.5-1.4,1.4-2.2c1.1-0.9,1.9-1.3,2.6-1.3c0.9,0,1.5,0.6,2.1,1.2c0.1,0.1,0.1,0.1,0.2,0.2c0,0,0.1,0.1,0.2,0.1
			c0.4,0,1.4-0.3,3.7-2.7c1-1,1.7-1.9,2.2-2.6c0.4-0.7,0.6-1.2,0.4-1.4c-0.1-0.1-0.1-0.1-0.2-0.2c-0.6-0.5-1.1-1.1-1.2-1.8
			c-0.1-0.8,0.3-1.7,1.2-2.9c0.7-0.9,1.5-1.4,2.3-1.4c1,0,1.8,0.8,2.5,1.5c0.1,0.1,0.2,0.2,0.3,0.3c0.4,0.4,0.6,1,0.6,1.8
			c0,0.8-0.2,1.7-0.6,2.7c-0.8,2.2-2.5,4.6-4.6,6.8c-1.7,1.7-3.5,3-5.2,3.9C205,405,203.5,405.5,202.3,405.5z M202.7,399.4
			c-0.5,0-1.2,0.3-2.1,1.1c-0.7,0.6-1.1,1.1-1.1,1.6c0,0.7,0.7,1.4,1.3,1.9c0.1,0.1,0.2,0.2,0.4,0.3c0.2,0.2,0.7,0.4,1.2,0.4
			c1,0,2.4-0.4,3.9-1.2c1.7-0.9,3.4-2.2,5-3.8c2.1-2.1,3.7-4.4,4.4-6.5c0.8-2,0.6-3.2,0.2-3.6c-0.1-0.1-0.2-0.2-0.3-0.4
			c-0.6-0.6-1.2-1.3-1.9-1.3c-0.5,0-1,0.4-1.6,1.1c-0.8,1-1.1,1.7-1.1,2.3c0.1,0.5,0.5,0.9,0.9,1.3c0.1,0.1,0.1,0.1,0.2,0.2
			c0.5,0.5,0.4,1.3-0.3,2.4c-0.5,0.7-1.3,1.6-2.3,2.7c-2,2-3.4,2.9-4.3,2.9c-0.3,0-0.6-0.1-0.8-0.3c-0.1-0.1-0.1-0.1-0.2-0.2
			C203.6,399.8,203.2,399.4,202.7,399.4z"/>
	</g>
	<path class="st0" d="M197.4,406.9c0,0-0.1,0-0.1,0c-0.2-0.1-0.3-0.3-0.3-0.5c0.6-2,2.6-2.9,2.7-3c0.2-0.1,0.5,0,0.6,0.2
		c0.1,0.2,0,0.4-0.2,0.6l0,0c0,0-1.8,0.9-2.3,2.5C197.7,406.8,197.6,406.9,197.4,406.9z"/>
</g>
</svg>
